<?xml version="1.0" encoding="UTF-8" standalone="no"?>
<!-- Created with Inkscape (http://www.inkscape.org/) -->

<svg
   width="20.32mm"
   height="128.5mm"
   viewBox="0 0 20.32 128.5"
   version="1.1"
   id="svg1"
   xml:space="preserve"
   inkscape:version="1.3 (0e150ed6c4, 2023-07-21)"
   sodipodi:docname="SlendroQuantizer.svg"
   xmlns:inkscape="http://www.inkscape.org/namespaces/inkscape"
   xmlns:sodipodi="http://sodipodi.sourceforge.net/DTD/sodipodi-0.dtd"
   xmlns="http://www.w3.org/2000/svg"
   xmlns:svg="http://www.w3.org/2000/svg"><sodipodi:namedview
     id="namedview1"
     pagecolor="#ffffff"
     bordercolor="#000000"
     borderopacity="0.25"
     inkscape:showpageshadow="2"
     inkscape:pageopacity="0.0"
     inkscape:pagecheckerboard="0"
     inkscape:deskcolor="#d1d1d1"
     inkscape:document-units="mm"
     inkscape:zoom="0.94964929"
     inkscape:cx="-108.46109"
     inkscape:cy="234.29702"
     inkscape:window-width="1366"
     inkscape:window-height="745"
     inkscape:window-x="-8"
     inkscape:window-y="-8"
     inkscape:window-maximized="1"
     inkscape:current-layer="layer1"
     showgrid="false"><inkscape:grid
       id="grid2"
       units="mm"
       originx="0"
       originy="0"
       spacingx="2.54"
       spacingy="1.285"
       empcolor="#0099e5"
       empopacity="0.30196078"
       color="#0099e5"
       opacity="0.14901961"
       empspacing="5"
       dotted="false"
       gridanglex="30"
       gridanglez="30"
       visible="false" /></sodipodi:namedview><defs
     id="defs1" /><g
     inkscape:groupmode="layer"
     id="layer2"
     inkscape:label="bg"><rect
       style="fill:#ffffff;stroke-width:1.62"
       id="rect3"
       width="20.319998"
       height="128.5"
       x="3.4809113e-07"
       y="0" /><rect
       style="fill:#5a391b;fill-opacity:1;stroke-width:1.49397"
       id="rect1"
       width="20.32"
       height="5.0799999"
       x="-1.2111666e-06"
       y="-3.1560262e-06" /><rect
       style="fill:#5a391b;fill-opacity:1;stroke-width:1.50277"
       id="rect2"
       width="20.32"
       height="5.1400104"
       x="-1.2111666e-06"
       y="123.35999" /><path
       style="font-size:3.175px;font-family:'Liberation Mono';-inkscape-font-specification:'Liberation Mono';display:inline;fill:#ffffff;fill-opacity:1;stroke-width:1.62"
       d="m 6.2431823,126.40284 q 0,0.28525 -0.20929,0.44493 -0.207739,0.15968 -0.593762,0.15968 -0.708484,0 -0.823205,-0.555 l 0.286804,-0.0574 q 0.04341,0.19999 0.179834,0.29145 0.136425,0.0899 0.364319,0.0899 0.246496,0 0.37362,-0.0961 0.128674,-0.0961 0.128674,-0.27285 0,-0.10852 -0.05116,-0.17673 -0.04961,-0.0682 -0.131775,-0.11162 -0.08217,-0.0434 -0.186036,-0.0698 -0.102319,-0.0279 -0.207739,-0.0543 -0.249597,-0.0651 -0.356567,-0.11627 -0.10542,-0.0512 -0.168982,-0.11627 -0.06356,-0.0667 -0.09612,-0.15193 -0.03256,-0.0853 -0.03256,-0.19999 0,-0.2682 0.187585,-0.41238 0.189136,-0.14572 0.541053,-0.14572 0.328662,0 0.502294,0.11472 0.173633,0.11472 0.241846,0.38757 l -0.291455,0.0512 q -0.03721,-0.17363 -0.148828,-0.25115 -0.111621,-0.0791 -0.305408,-0.0791 -0.438733,0 -0.438733,0.33021 0,0.093 0.04031,0.15193 0.04186,0.0574 0.111621,0.0961 0.07131,0.0372 0.164331,0.062 0.09457,0.0248 0.201538,0.0527 0.215491,0.0543 0.310059,0.0915 0.09457,0.0356 0.167432,0.0822 0.07441,0.0465 0.127124,0.11007 0.05271,0.0636 0.08217,0.14883 0.03101,0.0853 0.03101,0.20154 z m 0.407727,0.57361 v -2.09135 h 1.424719 v 0.24185 h -1.128613 v 0.65422 h 1.035595 v 0.23875 h -1.035595 v 0.71468 h 1.192175 v 0.24185 z m 3.106787,0 v -1.34566 q 0,-0.20929 0.0046,-0.31161 l 0.0047,-0.15502 q -0.09922,0.31936 -0.147278,0.45113 l -0.254248,0.67903 h -0.212388 l -0.257349,-0.67903 q -0.02791,-0.0713 -0.148828,-0.45113 l 0.0062,0.46663 v 1.34566 h -0.248046 v -2.09135 h 0.36742 l 0.286804,0.7581 q 0.03256,0.0822 0.10542,0.35811 l 0.04031,-0.13952 0.06821,-0.21704 0.286804,-0.75965 h 0.3488157 v 2.09135 z m 0.7038327,0 v -2.09135 h 1.424719 v 0.24185 h -1.128613 v 0.65422 h 1.035595 v 0.23875 h -1.035595 v 0.71468 h 1.192175 v 0.24185 z m 3.137793,0 -0.567407,-0.89142 h -0.36897 v 0.89142 h -0.296106 v -2.09135 h 0.747241 q 0.361218,0 0.550354,0.15038 0.189136,0.14883 0.189136,0.42788 0,0.231 -0.145728,0.38913 -0.144177,0.15813 -0.387573,0.19843 l 0.620117,0.92553 z m -0.04341,-1.50844 q 0,-0.34571 -0.471289,-0.34571 h -0.42168 v 0.72864 h 0.434082 q 0.221692,0 0.339514,-0.0992 0.119373,-0.0992 0.119373,-0.28371 z m 2.147156,0.74879 q 0,0.41393 -0.176734,0.60307 -0.176733,0.18758 -0.567407,0.18758 -0.378272,0 -0.548804,-0.18138 -0.168982,-0.18293 -0.168982,-0.58136 v -1.35961 h 0.296106 v 1.3193 q 0,0.31626 0.08992,0.44029 0.09147,0.12247 0.330213,0.12247 0.249597,0 0.350366,-0.12713 0.100769,-0.12712 0.100769,-0.45578 v -1.29915 h 0.294556 z"
       id="text2"
       aria-label="SEMERU" /><g
       id="g108"
       transform="matrix(0.0252232,0,0,0.0252232,-6.3562751,112.45499)"
       style="display:inline">&#10;		<path
   fill="#5a391b"
   d="m 669.199,280.965 c -6.612,-6.521 -14.393,-6.011 -22.879,-7.595 -4.553,-0.85 -8.527,-5.097 -10.99,-8.788 -1.505,-2.255 -1.704,-4.844 -1.13,-7.387 1.307,1.05 2.819,1.895 3.993,2.555 3.961,2.226 8.446,2.907 12.921,2.91 5.122,0.003 11.773,-1.235 15.072,3.831 1.791,2.75 5.78,0.369 4.363,-2.55 -3.044,-6.271 -9.899,-7.305 -16.22,-7.318 -4.612,-0.01 -8.792,-0.17 -13.027,-2.192 -0.703,-0.336 -4.319,-2.049 -3.793,-3.113 0.74,-1.498 2.139,-2.77 2.99,-4.229 1.677,-2.874 -2.845,-5.501 -4.444,-2.598 -1.865,2.93 -4.781,4.085 -4.719,7.997 10e-4,0.061 0.013,0.119 0.016,0.18 -0.945,1.948 -1.674,4.012 -1.965,6.413 -0.585,4.835 2.891,9.306 6.021,12.527 3.237,3.332 7.02,5.773 11.695,6.367 3.158,0.401 6.329,0.478 9.458,1.101 3.775,0.752 7.514,2.448 11.018,3.989 1.318,0.578 2.776,-0.96 1.62,-2.1 z"
   id="path106" />&#10;		<path
   fill="#5a391b"
   d="m 573.42,249.143 c 0.702,0.158 1.396,0.234 2.118,0.197 1.256,-0.063 2.384,-0.63 3.034,-1.74 0.814,-1.39 0.541,-3.11 -0.549,-4.258 -0.539,-0.567 -1.116,-1.052 -1.802,-1.436 0.027,0.021 0.054,0.042 0.081,0.063 -0.294,-0.206 -0.596,-0.389 -0.945,-0.552 -1.028,-0.48 -2.007,-0.722 -3.137,-0.411 -1.018,0.28 -1.9,0.961 -2.433,1.871 -0.551,0.94 -0.699,2.087 -0.41,3.138 0.392,1.426 1.476,2.386 2.844,2.844 0.401,0.135 0.796,0.22 1.199,0.284 z"
   id="path107" />&#10;		<path
   fill="#5a391b"
   d="m 852.842,289.243 c -0.467,-5.307 -1.004,-10.604 -1.595,-15.898 -1.001,-8.965 -2.319,-17.855 -3.695,-26.759 1.986,-3.168 1.364,-7.164 -1.187,-10.688 -7.707,-10.652 -25.275,-11.778 -37.13,-11.803 -6.91,-0.014 -13.814,0.553 -20.719,0.748 -8.539,0.24 -17.089,-0.149 -25.618,-0.529 -15.392,-0.686 -30.179,-1.551 -44.578,-7.187 0.51,-0.209 1.015,-0.429 1.507,-0.677 8.638,-4.348 12.913,-13.077 14.899,-22.18 1.836,-8.413 0.342,-18.001 -7.403,-22.875 -5.612,-3.532 -13.66,-2.521 -17.3,3.17 -0.865,1.352 0.57,3.344 2.141,2.785 3.601,-1.283 4.94,3.387 4.462,5.668 -0.515,2.46 -3.062,4.233 -5.017,5.479 -3.229,2.058 -6.682,3.204 -10.412,3.944 -7.631,1.514 -15.877,-0.037 -23.387,-1.486 -17.47,-3.371 -34.658,-8.141 -51.446,-14.018 -1.892,-0.662 -3.777,-1.345 -5.658,-2.04 0.868,-0.952 1.711,-1.509 3.518,-1.779 2.57,-0.384 4.868,-1.144 7.233,-2.195 2.506,-1.114 4.469,-3.06 6.665,-4.639 2.404,-1.729 6.212,-0.27 8.987,-1.186 1.666,-0.55 2.958,-2.127 3.558,-3.721 1.126,-2.994 2.677,-2.354 5.485,-2.334 5.56,0.041 5.663,-4.209 7.987,-7.981 2.147,-3.484 6.052,-5.819 8.526,-9.114 0.984,-1.312 1.686,-3.143 1.778,-4.781 0.186,-3.313 -1.424,-5.823 1.396,-8.437 1.584,-1.468 2.531,-3.051 3.016,-5.14 0.617,-2.654 -1.414,-5.777 -0.101,-8.289 0.965,-1.845 2.577,-2.952 2.802,-5.184 0.293,-2.906 -1.085,-5.071 -2.094,-7.698 -1.601,-4.165 3.809,-8.406 1.568,-12.956 -0.914,-1.856 -2.309,-2.96 -4.002,-4.093 -2.507,-1.679 -2.65,-8.089 -3.638,-10.797 -1.898,-5.202 -4.888,-10.416 -8.162,-14.87 -0.948,-1.29 -5.173,-3.936 -5.136,-5.466 0.061,-2.499 -0.053,-4.904 -1.227,-7.191 -2.129,-4.144 -5.553,-6.782 -10.105,-7.744 -3.525,-0.745 -4.733,-2.154 -7.082,-4.652 -1.618,-1.721 -4.047,-2.63 -6.34,-2.896 -2.779,-0.322 -5.602,-0.05 -8.355,-0.586 -2.68,-0.522 -4.163,-3.529 -6.637,-4.553 -5.282,-2.184 -10.211,0.817 -14.522,3.767 -1.898,1.299 -1.929,-0.358 -3.353,-1.342 -1.424,-0.983 -3.139,-1.555 -4.888,-1.077 -4.504,1.232 -7.844,4.76 -12.311,6.254 -4.314,1.443 -8.984,2.324 -12.585,5.307 -2.852,2.362 -4.862,5.272 -6.033,8.655 -5.251,-0.825 -9.887,3.14 -10.587,8.806 -0.349,2.824 -0.329,5.241 -1.283,8.004 -0.686,1.989 -1.471,3.921 -1.749,6.02 -0.361,2.717 -0.106,5.352 1.114,7.613 -5.352,5.139 -2.625,15.34 6.052,15.129 0.921,-0.022 1.584,-0.546 1.933,-1.227 0.712,0.491 1.517,0.826 2.328,0.926 -0.013,0.171 -0.033,0.341 -0.046,0.513 -0.205,2.809 0.025,5.47 2.686,6.959 0.018,0.01 0.038,0.013 0.056,0.023 1.11,1.691 3.687,1.004 5.132,0.304 1.625,-0.787 2.938,-2.188 4.041,-3.601 0.204,0.396 0.398,0.793 0.565,1.196 0.687,1.649 2.922,1.838 3.544,0 2.33,-6.883 -6.061,-11.19 -4.559,-18.059 1.661,-7.597 11.227,-13.357 17.888,-15.863 7.559,-2.843 16.06,-2.391 23.386,0.906 7.239,3.258 14.623,11.072 11.512,19.511 -0.486,1.318 0.532,2.803 1.792,3.156 5.796,1.625 1.023,7.691 0.694,11.235 -0.391,4.207 2.244,8.474 -3.307,10.11 -1.087,0.32 -1.878,1.31 -1.872,2.459 0.009,1.925 0.009,3.788 -0.86,5.564 -0.833,1.702 -5.196,1.899 -6.771,2.769 -3.759,2.076 -8.958,8.912 -13.642,6.351 -1.234,-0.675 -2.944,-0.351 -3.64,0.954 -0.179,0.335 -0.358,0.671 -0.537,1.007 -4.333,-4.681 -10.629,-8.296 -16.96,-8.542 0.782,-1.923 1.156,-4.094 0.964,-6.588 -0.583,-7.594 -6.76,-11.868 -13.976,-10.79 -7.059,1.054 -14.275,7.513 -18.994,13.278 -0.578,0.182 -1.138,0.414 -1.665,0.703 -2.871,1.576 -0.784,5.452 2.092,4.961 6.327,-1.081 7.247,4.039 11.046,7.667 0.372,0.355 0.776,0.65 1.193,0.914 -4.936,-0.685 -10.167,0.067 -14.579,2.04 -2.324,-3.604 -4.274,-7.455 -5.776,-11.339 -0.233,-0.602 -0.635,-1.002 -1.099,-1.233 0.353,-0.995 0.623,-2.004 0.828,-3.023 2.124,-2.113 4.215,-4.003 6.944,-5.743 3.243,-2.068 6.168,-4.259 8.385,-7.442 0.767,-1.101 0.275,-2.987 -0.936,-3.57 0.614,-0.941 1.341,-0.922 2.181,0.058 0.682,0.403 1.367,0.352 2.123,0.311 0.991,-0.053 1.67,-0.751 1.733,-1.733 0.307,-4.756 -6.703,-6.164 -9.821,-3.565 -2.503,2.086 -2.903,5.411 -1.291,7.643 -2.45,2.413 -6.07,4.348 -9.076,6.618 -0.051,-0.415 -0.093,-0.828 -0.165,-1.248 -0.209,-1.217 -1.427,-1.58 -2.446,-1.305 -0.158,-0.502 -0.398,-0.91 -0.7,-1.234 0.293,-0.337 0.557,-0.716 0.794,-1.128 0.406,0.209 0.853,0.392 1.359,0.537 2.259,0.647 3.649,-0.641 4.41,-2.397 0.13,0.139 0.26,0.279 0.401,0.414 1.849,1.767 4.539,-0.024 4.083,-2.377 -0.387,-1.998 -1.416,-4.651 -2.88,-6.115 -1.059,-1.059 -2.997,-1.15 -4.797,-1.106 -1.116,-2.084 -3.927,-3.343 -6.646,-3.342 -0.24,0 -2.948,0.374 -3.005,0.188 -0.312,-1.02 -1.025,-1.674 -2.017,-2.017 -2.321,-0.803 -4.344,-0.307 -6.409,0.927 -2.274,1.359 -3.95,4.09 -6.748,4.437 -3.384,0.419 -6.101,-0.134 -9.41,1.194 -4.142,1.663 -7.335,4.923 -9.145,8.894 -8.7,-2.432 -17.67,3.144 -18.733,12.225 -2.684,0.216 -5.253,1.68 -6.802,4.014 -1.691,2.549 -2.13,5.32 -1.941,8.136 -0.773,1.57 -1.419,3.182 -1.966,4.828 -1.454,1.054 -2.664,2.501 -3.621,4.219 -2.072,3.719 -1.493,8.182 -0.417,12.258 -2.463,0.756 -4.482,2.656 -5.627,5.294 -2.141,4.93 0.799,10.089 4.337,13.433 0.041,0.039 0.087,0.065 0.13,0.1 -0.028,0.112 -0.046,0.229 -0.052,0.351 -0.639,13.064 0.132,26.269 -0.304,39.369 -0.202,6.066 -0.586,11.68 -3.621,17.079 -2.506,4.457 -5.176,8.299 -5.845,13.48 -0.503,3.897 2.171,7.335 5.881,8.073 4.452,0.887 8.543,-2.896 11.283,-5.861 3.193,-3.454 5.302,-7.569 6.848,-11.944 1.67,1.099 4.218,1.232 6.37,0.618 1.288,-0.367 2.49,-1.09 3.624,-1.931 2.61,3.228 6.066,5.298 10.595,4.351 1.266,-0.265 2.446,-0.911 3.546,-1.678 6.308,6.196 14.77,8.248 23.184,5.113 9.401,-3.502 16.322,-11.573 25.297,-15.938 10.336,-5.026 22.743,-5.154 33.822,-3.12 7.184,1.319 13.792,3.873 20.346,6.636 -2.639,-0.219 -5.267,-0.564 -7.896,-0.944 -7.713,-1.116 -15.524,-1.862 -23.099,0.387 -1.683,0.5 -2.859,2.004 -2.872,3.773 -0.007,0.867 -0.101,1.729 -0.189,2.59 -2.838,1.919 -5.163,5.047 -6.487,7.969 -0.321,0.709 -0.233,1.481 0.088,2.128 -0.179,0.055 -0.359,0.111 -0.538,0.166 -0.755,0.233 -1.589,0.882 -1.721,1.721 -2.846,18.143 -3.411,36.949 -4.437,55.273 -0.233,4.154 6.793,4.023 6.347,0 1.394,-18.04 3.347,-36.518 2.929,-54.618 -0.009,-0.368 -0.104,-0.761 -0.273,-1.117 0.423,-0.07 0.843,-0.301 1.212,-0.769 1.505,-1.905 2.924,-3.813 4.721,-5.376 0.289,0.041 0.594,0.033 0.914,-0.064 1.128,-0.343 2.02,-0.886 2.728,-1.574 2.09,1.039 2.343,7.298 2.424,8.462 0.474,6.766 -0.57,13.492 -2.005,20.081 -2.808,12.885 -7.122,25.381 -7.868,38.643 -0.25,4.443 6.637,4.416 6.89,0 0.913,-15.894 7.221,-30.818 9.228,-46.529 0.436,0.215 0.963,0.3 1.573,0.167 7.861,-1.725 16.202,-2.909 23.793,0.53 7.689,3.483 10.719,10.57 9.11,18.603 -1.232,6.154 -4.964,13.073 1.539,17.239 6.612,4.236 8.336,10.445 11.286,17.199 0.676,1.547 3.105,1.028 3.473,-0.454 1.769,-7.133 -2.751,-14.506 -7.774,-19.188 -1.172,-1.092 -2.539,-2.005 -3.879,-2.87 -1.827,-1.18 0.555,-7.194 0.941,-8.729 1.032,-4.095 1.477,-8.083 0.76,-12.262 -1.197,-6.983 -7.5,-12.445 -13.662,-15.11 -8.434,-3.648 -18.266,-2.135 -26.736,0.547 0.044,-0.618 0.1,-1.234 0.128,-1.855 0.216,-4.802 0.266,-14.004 -3.894,-17.947 12.525,-0.971 25.617,4.143 37.772,-0.108 0.846,0.196 1.579,0.014 2.157,-0.403 2.809,-0.266 5.454,-1.185 7.95,-2.507 2.348,-1.243 5.076,-3.116 4.941,-6.036 -0.034,-0.736 -0.611,-1.433 -1.399,-1.399 -2.279,0.098 -3.562,1.536 -5.393,2.732 -1.71,1.116 -3.565,1.729 -5.503,2.151 -0.195,-0.227 -0.415,-0.439 -0.691,-0.614 -3.868,-2.455 -8.102,-4.589 -12.496,-6.435 0.923,-0.52 1.833,-1.067 2.713,-1.682 2.252,-1.575 5.05,-3.598 5.797,-6.359 0.056,-0.206 0.06,-0.41 0.042,-0.61 3.671,1.997 7.356,3.969 11.109,5.797 7.954,3.874 16.056,7.495 23.586,12.167 17.132,10.63 24.742,27.607 25.535,47.315 0.433,10.758 -2.13,21.094 -4.813,31.416 -2.002,7.703 -3.746,15.479 -4.971,23.344 1.781,0.166 3.565,0.319 5.354,0.457 0.084,-0.535 0.161,-1.071 0.249,-1.604 3.311,-20.201 11.476,-39.538 8.952,-60.314 0.683,0.207 1.44,0.076 2.034,-0.622 3.381,-3.976 9.809,-2.226 14.159,-4.939 1.955,-1.219 3.4,-3.05 4.548,-5.09 0.29,3.062 -0.275,6.148 -1.726,9.097 -1.895,3.851 -5.456,5.875 -8.496,8.652 -1.41,1.288 0.135,3.073 1.666,2.862 5.417,-0.747 9.883,-5.958 11.821,-10.816 2.411,-6.044 1.987,-12.359 -0.681,-18.229 -0.967,-2.127 -3.855,-1.195 -4.501,0.588 -2.172,5.997 -4.502,9.84 -11.287,10.509 -3.142,0.31 -6.246,1.097 -8.228,3.511 -3.095,-16.523 -11.719,-30.022 -26.023,-39.447 -7.469,-4.922 -15.763,-8.521 -23.984,-11.967 -10.105,-4.236 -20.609,-7.577 -30.666,-11.808 -0.218,-0.092 -0.372,0.279 -0.161,0.382 4.673,2.268 9.25,4.768 13.832,7.272 -2.144,0.811 -3.89,2.702 -5.707,4.059 -1.915,1.43 -3.963,2.679 -6.088,3.773 -4.499,-1.588 -9.07,-2.895 -13.514,-3.932 -2.66,-0.621 -5.346,-1.093 -8.045,-1.418 1.756,-1.598 3.414,-3.3 4.915,-5.132 0.49,-0.598 0.781,-1.492 0.284,-2.201 -0.189,-0.27 -0.343,-0.511 -0.652,-0.652 -0.723,-0.331 -1.618,-0.361 -2.201,0.284 -2.353,2.601 -4.783,5.046 -7.439,7.274 -6.213,-0.306 -12.453,0.189 -18.565,1.557 -5.232,1.171 -9.826,3.298 -14.148,5.941 1.834,-3.72 4.107,-7.181 6.798,-10.416 1.742,-2.094 3.705,-4.024 5.96,-5.559 0.758,-0.516 5.589,-2.227 3.657,0.435 -0.348,0.48 -0.235,1.16 -0.202,1.693 0.035,0.572 0.422,0.93 0.981,0.981 2.206,0.202 4.821,-2.771 3.924,-5.069 -1.477,-3.784 -5.27,-3.714 -8.683,-2.461 -4.375,1.606 -8.034,6.119 -10.703,9.737 -3.229,4.379 -5.573,9.225 -7.27,14.378 -2.025,1.47 -4.022,3.019 -6.034,4.596 -3.991,3.131 -7.865,5.93 -12.897,7.087 -4.855,1.117 -9.576,-1.047 -13.637,-3.585 2.153,-1.664 4.449,-3.018 6.56,-4.677 0.706,-0.555 0.212,-1.61 -0.488,-1.85 -0.195,-0.067 -0.39,-0.117 -0.585,-0.155 2.945,0.299 5.816,0.229 8.565,-1.656 1.882,-1.29 2.644,-3.339 3.236,-5.436 0.459,-1.629 0.581,-3.372 0.918,-5.031 0.269,-1.225 0.814,-2.311 1.636,-3.258 2.641,-1.074 3.892,-0.482 3.752,1.775 -0.233,1.624 1.937,2.3 2.497,0.688 1.124,-3.234 -1.192,-7.669 -5.18,-6.697 -5.47,1.333 -5.849,7.018 -7.137,11.554 -1.306,4.599 -7.374,3.265 -10.712,2.749 -3.175,-0.491 -6.401,-0.761 -9.583,-0.133 -3.068,0.606 -5.745,1.673 -8.351,3.407 -2.742,1.824 -7.574,8.117 -11.082,5.01 0.916,-3.463 1.612,-6.992 2.312,-10.417 0.764,-0.066 1.499,0.268 2.203,1.021 0.055,1.424 2.129,2.2 2.84,0.769 1.111,-2.234 0.196,-4.812 -2.421,-5.532 -5.055,-1.39 -6.099,1.713 -7.116,5.654 -1.285,4.983 -3.057,9.893 -5.52,14.417 -1.35,2.479 -2.811,4.85 -4.642,7.006 -0.959,1.129 -2.092,2.188 -3.272,3.078 -2.405,1.815 -4.499,-0.639 -3.898,-3.131 1.149,-4.771 5.054,-8.535 6.714,-13.135 2.011,-5.573 2.082,-11.457 2.216,-17.316 0.125,-5.455 0.227,-11.068 0.131,-16.69 4.373,-3.576 9.971,-0.906 15.145,-0.976 -4.415,5.29 -8.859,10.537 -13.44,15.704 -1.687,1.903 0.953,4.598 2.805,2.805 0.81,-0.784 1.615,-1.578 2.413,-2.381 0.212,0.149 0.503,0.191 0.77,0.05 3.583,-1.889 5.92,-5.238 8.423,-8.324 2.541,-3.133 5.475,-6.091 6.441,-10.113 0.041,-0.169 0.051,-0.337 0.05,-0.503 1.497,-0.956 2.934,-1.979 4.229,-2.738 1.194,-0.7 0.939,-2.523 -0.379,-2.9 -2.283,-0.653 -3.87,0.125 -5.835,1.359 -3.54,2.224 -5.617,2.91 -9.895,2.367 -3.855,-0.489 -7.95,-0.45 -10.83,1.762 -0.189,-5.392 -0.6,-10.758 -1.386,-15.968 0.114,-0.029 0.23,-0.067 0.346,-0.12 5.987,-2.732 9.128,-8.318 12.194,-13.842 3.709,-6.683 8.388,-12.567 14.133,-17.504 -0.811,9.708 -6.444,18.255 -9.118,27.465 -0.512,0.893 -0.793,1.936 -0.757,3.054 -0.648,3.148 -0.872,6.393 -0.365,9.806 0.209,1.406 2.424,1.61 3.017,0.394 5.681,-11.648 19.046,-14.072 30.367,-9.881 12.417,4.597 20.494,16.718 26.798,27.67 1.036,1.801 4.024,1.061 3.957,-1.072 -0.122,-3.873 -0.241,-7.905 -0.925,-11.797 0.499,-0.33 0.867,-0.868 0.894,-1.577 0.291,-7.693 14.308,0.131 17.238,1.402 5.412,2.347 10.893,4.536 16.394,6.665 11.507,4.453 23.19,8.442 34.928,12.236 11.752,3.799 23.583,7.347 35.432,10.831 11.319,3.328 22.424,6.915 34.331,7.05 5.581,0.063 11.169,-0.475 16.723,-0.956 2.432,-0.211 4.943,-0.457 7.401,-0.924 0.039,0.7 0.4,1.413 1.218,1.961 10.243,6.866 23.011,8.9 35.034,10.079 13.676,1.342 27.604,1.919 41.34,1.617 12.156,-0.267 24.519,-1.729 36.494,1.076 5.094,1.193 11.572,3.479 14.327,8.23 1.033,1.782 -7.673,3.025 -8.664,3.25 -0.738,0.167 -1.48,0.314 -2.22,0.473 1.066,-0.472 1.929,-1.36 2.184,-2.586 0.044,-0.214 0.089,-0.428 0.133,-0.641 0.131,-0.633 0.159,-1.22 0.073,-1.796 -0.046,-1.241 -0.729,-2.399 -1.804,-3.029 -1.293,-0.758 -2.957,-0.617 -4.117,0.302 -0.293,0.178 -0.564,0.391 -0.789,0.66 -0.371,0.442 -0.669,0.877 -0.977,1.351 -1.217,1.873 -0.387,4.512 1.468,5.599 0.617,0.361 1.325,0.525 2.035,0.523 -1.726,0.359 -3.453,0.711 -5.183,1.051 -0.046,-0.012 -0.085,-0.031 -0.132,-0.041 -7.954,-1.668 -17.274,-0.196 -25.345,0.314 -8.467,0.535 -16.92,1.463 -25.322,2.625 -15.981,2.21 -31.522,5.293 -45.575,13.588 -22.695,13.396 -38.784,39.169 -38.443,65.738 1.805,0.091 3.61,0.178 5.418,0.26 0.965,-11.958 3.754,-23.344 9.708,-34.086 6.608,-11.924 16.895,-21.562 28.811,-28.046 12.953,-7.048 28.352,-8.849 42.766,-10.662 8.101,-1.019 16.238,-1.698 24.384,-2.227 6.832,-0.443 14.266,0.218 21.105,-0.779 0.571,0.24 1.232,0.334 1.972,0.196 0.381,-0.071 0.762,-0.137 1.143,-0.208 -0.939,3.121 -0.156,7.624 -0.09,10.218 0.216,8.468 0.113,17.106 0.991,25.532 0.298,2.863 3.535,3.734 5.24,1.419 0.216,-0.294 0.433,-0.588 0.649,-0.882 0.454,-0.617 0.232,-1.443 -0.246,-1.974 0.059,-5.749 -0.402,-11.555 -0.68,-17.287 -0.137,-2.837 -0.271,-5.674 -0.419,-8.511 -0.124,-2.374 -1.399,-6.73 0.06,-8.748 0.174,-0.241 0.264,-0.52 0.289,-0.811 1.587,-0.278 3.175,-0.555 4.765,-0.82 2.834,-0.474 6.707,-0.46 9.472,-1.741 0.626,7.799 1.201,15.602 1.889,23.398 0.467,5.299 0.929,10.599 1.402,15.898 0.432,4.84 0.328,10.12 2.032,14.717 0.674,1.818 3.693,2.271 4.148,0 0.967,-4.837 0.095,-9.848 -0.333,-14.716 z M 493.48,224.797 c 3.702,-3.108 7.609,-4.425 12.429,-4.463 2.161,-0.017 4.302,0.357 6.409,0.606 -2.46,-0.101 -4.842,1.719 -6.713,3.18 -1.919,1.499 -3.652,3.27 -5.968,4.153 -2.749,1.049 -5.125,-0.775 -6.858,-2.877 0.236,-0.203 0.47,-0.405 0.701,-0.599 z m -20.785,-78.451 c -0.096,0.099 -0.189,0.2 -0.286,0.299 -0.043,-0.231 -0.082,-0.463 -0.119,-0.696 0.126,0.141 0.261,0.273 0.405,0.397 z m -0.69,17.579 c 0.991,-1.422 2.003,-2.825 3.04,-4.208 0.136,-0.023 0.269,-0.064 0.403,-0.107 -1.02,1.558 -2.141,3.023 -3.443,4.315 z m 16.15,-49.194 c 0.604,-1.567 1.585,-2.894 2.819,-3.873 -1.157,1.033 -2.054,2.35 -2.77,3.878 -0.016,-0.001 -0.033,-0.004 -0.049,-0.005 z m 2.739,14.621 c -0.248,-0.977 -0.886,-1.789 -1.71,-2.247 0.042,-0.094 0.086,-0.188 0.128,-0.283 0.864,0.527 1.801,0.643 2.74,0.494 0.121,0.398 0.277,0.775 0.463,1.132 -0.564,0.276 -1.101,0.581 -1.621,0.904 z m 31.82,-27.593 c 0.012,0.703 0.024,1.405 0.035,2.108 -0.057,0.868 -0.342,1.458 -0.84,1.788 -0.028,-0.04 -0.051,-0.079 -0.077,-0.118 -0.033,-0.684 -0.185,-1.332 -0.473,-1.926 0.137,-0.647 0.584,-1.265 1.355,-1.852 z m -10.884,7.99 c -0.67,-1.215 -1.68,-2.229 -3.132,-2.875 -0.297,-0.132 -0.59,-0.226 -0.879,-0.303 2.305,-1.372 4.538,0.591 4.011,3.178 z m -2.701,18.145 c -0.186,-0.203 -0.37,-0.434 -0.546,-0.682 -0.032,-0.23 -0.074,-0.456 -0.124,-0.679 1.821,-2.434 3.189,-5.314 3.892,-7.929 0.038,-0.021 0.075,-0.042 0.113,-0.063 0.071,0.827 0.274,1.633 0.583,2.39 -0.089,0.979 -0.205,1.961 -0.387,2.959 -0.034,0.164 -0.078,0.325 -0.115,0.488 -0.401,0.575 -0.738,1.201 -0.991,1.879 -0.078,0.208 -0.15,0.422 -0.221,0.636 -0.795,0.228 -1.541,0.566 -2.204,1.001 z m 1.163,5.649 c -0.06,0 -0.12,0.007 -0.181,0.01 0.055,-0.079 0.119,-0.153 0.177,-0.23 10e-4,0.073 0.003,0.147 0.004,0.22 z m -2.274,-19.284 c -1.031,0.508 -1.89,0.327 -1.909,-1.482 1.27,0.108 1.899,0.606 1.909,1.482 z m -6.313,5.697 c 0.007,0.005 0.014,0.01 0.021,0.015 -0.017,0.065 -0.043,0.126 -0.06,0.19 0.015,-0.068 0.025,-0.136 0.039,-0.205 z m -1.361,-9.961 c -0.075,0.429 -0.132,0.859 -0.162,1.289 -0.588,-0.561 -1.402,-0.852 -2.263,-0.544 -0.104,0.037 -0.201,0.081 -0.302,0.12 0.006,-0.698 -0.323,-1.41 -0.907,-1.817 1.178,0.066 2.403,0.371 3.634,0.952 z m -3.851,56.53 c 0.028,-0.08 0.06,-0.158 0.08,-0.24 0.047,0.042 0.09,0.086 0.139,0.127 -0.072,0.039 -0.146,0.075 -0.219,0.113 z m 1.367,-14.565 c -1.573,1.343 -2.75,3.257 -3.352,5.313 -0.652,0.263 -1.225,0.685 -1.72,1.221 1.228,-2.713 2.572,-5.414 3.786,-8.141 0.429,0.179 0.902,0.294 1.395,0.339 -0.049,0.423 -0.085,0.845 -0.109,1.268 z m 0.39,-24.923 c -0.148,-0.022 -0.28,-0.061 -0.403,-0.109 0.733,-0.555 1.391,-1.306 1.954,-2.178 -0.423,0.865 -0.949,1.825 -1.413,2.295 -0.046,-0.005 -0.092,-0.001 -0.138,-0.008 z m 2.253,16.048 c -0.132,0.193 -0.26,0.394 -0.384,0.605 -0.299,-0.14 -0.605,-0.247 -0.914,-0.313 0.051,-0.175 0.103,-0.349 0.151,-0.524 0.402,0.074 0.821,0.043 1.237,-0.057 -0.03,0.096 -0.058,0.193 -0.09,0.289 z m -0.186,-8.93 c -0.064,-0.584 -0.407,-1.162 -0.884,-1.541 0.235,-0.133 0.471,-0.29 0.708,-0.465 1.789,-0.189 3.488,-0.999 5.029,-2.2 -0.181,0.94 -0.468,1.838 -0.65,2.473 -0.376,1.163 -0.871,2.269 -1.476,3.326 -0.544,-0.56 -1.193,-1.039 -1.984,-1.385 -0.224,-0.099 -0.481,-0.172 -0.743,-0.208 z m 1.281,30.308 c 0.383,-0.841 0.494,-1.729 0.372,-2.593 0.145,0.055 0.289,0.112 0.443,0.154 0.784,0.216 1.484,0.165 2.095,-0.081 0.606,0.64 1.357,1.157 2.179,1.552 -1.725,0.169 -3.433,0.49 -5.089,0.968 z m 4.18,-16.846 c -0.01,-0.141 -0.006,-0.281 -0.01,-0.422 0.57,0.545 1.24,1.021 2.033,1.402 0.094,0.045 0.185,0.077 0.278,0.116 -0.827,2.405 -2.173,0.744 -2.301,-1.096 z m 2.224,-7.717 c 0.015,-0.12 0.032,-0.239 0.051,-0.358 0.899,-1.088 2.168,-0.868 3.82,0.702 0.014,0.141 -0.071,1.092 -0.317,2.06 -0.862,-1.226 -2.089,-2.092 -3.554,-2.404 z m 3.54,19.126 c -0.298,-0.383 -0.543,-0.835 -0.703,-1.339 -0.218,-1.084 -0.128,-1.984 0.267,-2.702 0.686,0.848 1.615,1.508 2.647,1.924 -0.456,0.685 -1.288,1.537 -2.211,2.117 z m 3.924,-23.795 c -0.073,-0.809 -0.108,-1.619 -0.118,-2.431 0.32,0.335 0.666,0.625 1.032,0.874 0.006,0.046 0.018,0.083 0.023,0.131 0.165,2.132 -0.148,2.607 -0.937,1.426 z m 1.29,-35.358 c -0.458,0.781 -0.699,1.686 -0.772,2.644 -0.478,0.528 -0.847,1.096 -1.088,1.69 -1.143,-1.405 -2.882,-2.343 -5.109,-2.535 2.011,-1.27 4.463,-1.887 7.133,-2.038 -0.053,0.081 -0.115,0.156 -0.164,0.239 z m 0.259,15.165 c -10e-4,-0.007 -0.003,-0.014 -0.003,-0.021 1.044,-1.048 1.978,-2.186 2.74,-3.351 0.203,0.03 0.401,0.048 0.596,0.058 0.912,0.626 1.911,1.027 2.959,1.071 0.119,0.005 0.24,0 0.36,-0.006 -0.236,0.362 -0.469,0.741 -0.694,1.144 -2.25,0.31 -4.26,1.389 -5.869,2.945 -0.022,-0.654 -0.053,-1.276 -0.089,-1.84 z m 3.625,4.651 c -0.045,0.164 -0.084,0.328 -0.125,0.492 -0.174,0.005 -0.348,0.016 -0.523,0.031 0.206,-0.189 0.419,-0.365 0.648,-0.523 z m -2.038,8.394 c -0.265,-0.218 -0.554,-0.404 -0.854,-0.574 -0.084,-0.59 -0.076,-1.234 -0.007,-1.881 0.185,-0.16 0.386,-0.297 0.596,-0.419 0.209,0.032 0.415,0.071 0.634,0.085 0.35,0.022 0.689,0.019 1.026,0.008 0.163,1.823 0.815,3.308 2.152,4.086 -0.471,0.415 -1.115,0.66 -1.906,0.621 -0.409,-0.702 -0.944,-1.354 -1.641,-1.926 z m 3.175,11.341 c -0.516,-0.254 -1.07,-0.409 -1.644,-0.476 0.585,-1.337 0.981,-2.775 1.09,-4.197 0.398,-0.051 0.792,-0.131 1.18,-0.241 -0.135,0.288 -0.217,0.628 -0.207,1.038 0.033,1.343 -0.15,2.621 -0.419,3.876 z m 0.604,16.373 c 0.179,-0.671 0.319,-1.331 0.418,-1.97 0.266,0.686 0.589,1.382 0.976,2.092 -0.414,-0.121 -0.874,-0.173 -1.394,-0.122 z m 2.669,-22.194 c -0.134,-0.048 -0.27,-0.083 -0.408,-0.108 0.244,-0.159 0.48,-0.33 0.705,-0.516 -0.088,0.211 -0.195,0.417 -0.297,0.624 z M 647.306,44.588 c 3.861,0.691 6.301,3.124 7.271,6.884 0.535,2.073 -0.513,4.252 0.506,6.274 1.141,2.265 3.234,2.778 5.021,4.403 2.063,1.876 3.399,5.098 4.763,7.475 1.986,3.462 3.573,7.036 4.551,10.909 0.649,2.571 0.716,4.901 2.11,7.226 1.226,2.046 4.923,2.581 4.333,5.51 -0.472,2.343 -1.719,4.41 -2.089,6.805 -0.382,2.477 0.526,4.635 1.544,6.837 1.548,3.348 -1.576,4.353 -2.233,7.209 -0.549,2.382 -0.291,4.411 0.137,6.802 0.622,3.477 -2.757,4.321 -4.154,6.744 -1.348,2.338 -1.311,4.372 -0.603,6.941 1.278,4.638 -3.948,7.717 -6.8,10.592 -1.383,1.393 -2.548,2.994 -3.417,4.751 -0.44,0.889 -0.899,3.294 -2.091,3.389 -1.367,0.109 -2.765,-0.091 -4.14,-0.027 -1.824,0.086 -3.175,0.846 -4.567,1.931 -2.076,1.619 -1.146,4.766 -4.584,4.658 -2.19,-0.068 -4.466,-0.295 -6.478,0.81 -2.777,1.525 -4.985,3.804 -7.792,5.307 -2.84,1.52 -5.685,0.993 -8.604,1.796 -1.973,0.543 -3.542,3.443 -4.794,4.99 -12.616,-4.894 -24.97,-10.487 -36.991,-16.682 -5.078,-2.617 -10.032,-5.374 -14.592,-8.72 1.096,0.298 2.21,0.312 3.252,0.082 0.55,1.475 1.67,2.751 3.463,3.568 2.439,1.112 4.776,0.014 6.059,-1.89 1.746,1.982 3.093,4.48 5.734,5.259 0.769,0.227 1.531,0.362 2.264,0.391 1.106,0.813 2.263,1.538 3.476,2.165 0.866,1.303 2.004,2.325 3.522,2.58 1.187,0.199 2.336,0.192 3.364,-0.06 0.144,0.035 0.283,0.077 0.427,0.11 0.658,1.629 1.848,2.895 3.946,3.686 2.574,0.971 4.895,-0.619 6.656,-2.621 0.304,-0.005 0.604,-0.02 0.905,-0.031 1.118,1.808 2.276,3.324 5.325,2.707 2.926,-0.592 4.644,-2.379 5.748,-4.678 0.256,-0.085 0.506,-0.18 0.759,-0.27 0.341,0.541 0.697,1.024 1.103,1.277 1.777,1.107 3.904,1.704 6.007,1.181 4.175,-1.038 6.408,-4.062 8.016,-7.619 0.393,0.477 0.776,0.93 1.115,1.129 1.586,0.929 3.38,0.727 5.068,0.31 2.301,-0.569 3.687,-2.394 4.562,-4.497 2.483,1.245 5.723,1.065 8.048,-0.937 1.355,-1.167 2.63,-2.989 3.371,-4.938 1.044,0.039 2.133,-0.127 3.201,-0.519 4.072,-1.493 6.788,-6.414 6.958,-10.58 0.018,-0.437 0.014,-0.898 -0.007,-1.37 1.751,-1.691 2.898,-3.977 3.11,-6.548 0.176,-2.133 -0.201,-4.149 -0.98,-5.93 3.618,-3.91 4.722,-12.06 1.941,-17.025 0.566,-3.596 0.485,-7.381 0.147,-9.137 -0.322,-1.672 -1.019,-3.087 -1.991,-4.263 0.924,-5.947 -1.698,-11.876 -6.617,-15.455 0.062,-2.995 -0.672,-5.948 -2.052,-8.817 -1.012,-2.105 -2.811,-4.231 -4.952,-5.486 0.291,-1.953 0.026,-4.116 -0.592,-5.794 -1.616,-4.396 -5.773,-6.69 -10.118,-6.792 -0.196,-1.205 -0.6,-2.352 -1.216,-3.405 1.43,0.772 3.083,1.119 4.671,1.403 z m -72.434,90.258 c -1.03,-0.718 -2.101,-1.376 -3.204,-1.96 -0.859,-0.455 -1.754,-0.846 -2.675,-1.178 1.148,-0.084 2.293,-0.39 3.355,-0.932 1.212,-0.619 2.383,-1.279 3.497,-1.985 -0.649,1.057 -1.064,2.268 -1.125,3.565 -0.036,0.782 0.023,1.623 0.152,2.49 z m -3.423,5.125 c 1.355,1.102 2.594,2.382 3.7,3.818 -0.916,0.153 -1.732,0.931 -1.699,1.934 -1.279,-0.186 -2.141,-0.489 -2.6,-0.903 0.687,-1.02 1.078,-2.268 1.009,-3.677 -0.023,-0.473 -0.178,-0.864 -0.41,-1.172 z m 51.626,16.488 c 1.654,-0.831 3.242,-1.774 4.768,-2.813 -1.354,2.046 -3.079,3.686 -4.768,2.813 z m 13.776,-58.796 c 0.647,0.85 1.387,1.633 2.179,2.324 -1.073,1.076 -1.889,2.396 -2.367,3.869 -0.296,-1.603 -0.591,-3.202 -0.231,-4.688 0.126,-0.523 0.27,-1.021 0.419,-1.505 z m -0.228,-27.936 c 0.287,-0.181 0.555,-0.389 0.807,-0.617 -0.224,0.264 -0.439,0.561 -0.646,0.879 -0.055,-0.085 -0.108,-0.174 -0.161,-0.262 z m 2.441,-5.686 c 0.699,0.725 1.382,1.468 2.034,2.242 7.25,8.602 8.3,20.257 7.656,31.028 -0.337,5.636 -1.125,11.357 -2.409,16.951 -0.727,-1.143 -1.922,-1.896 -3.309,-2.24 -2.028,-3.699 -3.172,-8.101 1.532,-9.51 2.562,-0.768 2.383,-4.167 0,-5.008 -2.593,-0.915 -4.207,-2.945 -4.655,-5.537 1.713,0.407 3.608,0.148 4.51,-1.431 1.503,-2.628 0.417,-4.897 -1.944,-6.502 -1.29,-0.876 -2.67,-0.666 -3.892,0 -0.546,-1.589 -0.34,-3.53 -0.083,-5.063 0.178,-0.821 0.405,-1.628 0.663,-2.427 0.826,-0.139 1.663,-0.507 2.502,-1.151 1.911,-1.465 2.667,-4.53 0.802,-6.395 -1.784,-1.785 -3.327,-1.567 -4.614,-0.338 0.383,-0.436 0.723,-0.924 0.964,-1.512 0.42,-1.023 0.491,-2.122 0.243,-3.107 z m 21.184,70.519 c -0.208,0.686 -0.495,1.353 -0.829,2.004 -0.387,0.756 -1.935,2.412 -3.228,2.635 -0.414,-1.283 -1.326,-2.385 -2.918,-3.103 -2.075,-0.936 -4.31,0.57 -3.803,2.924 0.302,1.4 0.939,2.536 1.797,3.392 -0.722,2.511 -4.85,5.991 -5.628,1.741 -0.431,-2.354 -4.417,-2.413 -4.796,0 -0.279,1.777 -1.897,8.574 -4.745,4.698 -0.379,-0.516 -0.765,-0.877 -1.186,-1.142 6.936,-7.074 11.982,-16.364 14.893,-26.136 0.277,-0.929 0.542,-1.87 0.8,-2.817 1.488,2.081 3.474,3.388 5.654,3.982 -1.978,1.18 -3.231,3.618 -3.143,6.018 0.123,3.309 3.878,5.87 7.132,5.804 z m -0.767,-5.447 c 0.085,-0.194 0.171,-0.387 0.256,-0.581 0.089,0.188 0.161,0.38 0.236,0.571 -0.16,0.009 -0.322,0.015 -0.492,0.01 z m -21.633,-7.083 c 0.072,-0.507 0.159,-1.013 0.269,-1.516 0.048,-1.745 0.81,-2.684 2.264,-2.843 0.643,0.876 1.317,1.735 1.999,2.587 0.562,0.702 1.375,0.899 2.155,0.755 -0.803,2.554 -1.725,5.061 -2.774,7.496 -0.561,1.302 -1.174,2.569 -1.829,3.805 -0.492,-0.389 -1.11,-0.595 -1.732,-0.622 0.797,-0.108 1.578,-0.514 1.899,-1.256 1.298,-3.001 0.245,-6.66 -2.251,-8.406 z m -2.43,12.312 c 0.104,0.852 0.076,1.696 -0.075,2.531 -0.146,-0.081 -0.312,-0.166 -0.508,-0.257 -0.952,-0.802 -1.823,-1.691 -2.66,-2.61 -0.345,-1.114 -0.609,-2.231 -0.712,-3.488 0.178,-0.82 0.356,-1.64 0.534,-2.46 0.21,-0.462 0.437,-0.812 0.678,-1.067 0.667,2.279 2.074,4.086 4.434,4.661 0.151,0.037 0.312,0.056 0.476,0.067 -1.19,0.18 -2.228,1.051 -2.167,2.623 z m -3.792,7.05 c 0.397,0.319 0.805,0.615 1.222,0.884 -0.478,0.505 -0.966,1.001 -1.469,1.482 0.111,-0.789 0.191,-1.583 0.247,-2.366 z m 30.149,-18.557 c 0.616,-0.138 1.223,-0.336 1.822,-0.568 0.203,0.755 0.265,1.572 0.164,2.418 -0.543,-0.744 -1.198,-1.382 -1.986,-1.85 z M 634.067,37.06 c 1.873,0.098 3.158,0.979 4.299,2.1 -3.258,-1.759 -6.919,-1.88 -10.597,-1.518 -0.257,-0.345 -0.533,-0.666 -0.832,-0.959 2.33,0.43 4.775,0.254 7.13,0.377 z m -14.169,-4.163 c 0.392,0.357 0.774,0.682 1.155,0.992 -3.327,-0.644 -7.113,-0.444 -10.41,-0.227 2.941,-1.946 6.175,-3.57 9.255,-0.765 z m -11.167,6.539 c 3.931,-0.128 13.058,-1.839 15.072,2.643 0.561,1.248 2.031,1.463 3.202,1.303 3.756,-0.514 12.496,-0.552 11.273,5.608 -0.42,2.115 1.297,4.09 3.516,3.515 1.807,-0.468 3.144,-0.351 4.815,0.504 0.63,0.322 2.708,4.294 2.677,5.224 -0.302,0.076 -0.604,0.173 -0.905,0.299 -2.903,1.221 -2.678,5.494 0.766,5.657 0.753,0.036 1.414,-0.056 1.996,-0.244 2.39,0.415 4.023,4.869 4.473,6.43 0.125,0.433 0.2,0.868 0.254,1.303 -1.621,0.177 -3.047,1.019 -3.556,2.869 -0.866,3.148 1.881,5.817 4.714,6.425 1.327,0.285 2.467,-0.225 3.136,-1.264 0.212,0.24 0.433,0.472 0.625,0.732 1.144,1.514 1.721,3.309 1.935,5.158 -2.718,-0.317 -6.143,1.461 -6.628,4.19 -1.176,6.618 5.046,8.527 8.961,5.407 0.207,1.087 0.233,2.269 0.161,3.416 -4.98,-0.595 -8.147,8.229 -3.686,10.984 1.787,1.104 3.236,1.242 4.41,0.743 -0.092,1.046 -0.307,2.086 -0.614,3.099 -0.153,0.503 -0.381,0.97 -0.66,1.401 -3.477,-2.852 -8.452,-3.627 -12.909,-0.645 4.487,-19.308 4.389,-41.12 -10.351,-55.768 -7.957,-7.908 -18.997,-12.857 -29.735,-15.598 -4.5,-1.149 -9.792,-1.533 -14.744,-0.679 3.267,-2.252 8.099,-2.592 11.802,-2.712 z m -17.527,-1.67 c 1.728,-0.772 6.924,-5.998 8.786,-3.404 0.115,0.16 0.236,0.298 0.356,0.438 -3.888,1.002 -7.415,2.887 -9.807,6.046 -0.628,-0.719 -1.233,-1.426 -2.154,-1.942 0.946,-0.351 1.887,-0.721 2.819,-1.138 z m -10.343,3.694 c -1.339,1.729 -1.794,4.115 -2.736,6.025 -0.93,1.885 -3.844,1.047 -5.393,1.445 -0.166,0.043 -0.317,0.095 -0.476,0.142 1.672,-3.785 4.734,-6.037 8.605,-7.612 z m -23.604,42.13 c -0.096,1.533 0.147,3.007 0.827,4.255 -1.216,-1.203 -1.602,-2.848 -0.827,-4.255 z m 11.519,-5.888 c -0.427,-0.926 -1.259,-1.605 -2.232,-1.998 0.739,-1.285 -0.515,-3.467 -2.205,-2.857 -1.755,0.633 -3.397,2.118 -4.66,3.984 -3.036,-3.569 0.294,-9.311 1.414,-13.115 0.862,-2.924 -0.03,-11.569 4.795,-10.165 -2.457,3.102 -4.291,7.5 -2.499,10.558 0.402,0.686 0.905,1.213 1.465,1.594 -0.013,0.501 0.016,1.019 0.092,1.552 0.509,3.558 5.086,5.176 8.099,5.057 0.332,-0.013 0.659,-0.049 0.983,-0.096 -0.374,0.469 -0.736,0.944 -1.086,1.426 -1.313,1.81 -2.193,3.785 -2.659,5.848 -0.298,-0.124 -0.615,-0.208 -0.941,-0.245 -0.139,-0.501 -0.322,-1.013 -0.566,-1.543 z m 5.494,17.313 c -1.003,0.726 -2.07,1.264 -3.198,1.698 -0.23,-0.493 -0.648,-0.879 -1.15,-1.063 0,-1.198 0.355,-2.831 0.398,-3.402 0.102,-1.345 0.271,-2.681 0.472,-4.012 0.905,2.291 2.454,4.435 3.863,6.59 -0.132,0.042 -0.262,0.1 -0.385,0.189 z m 8.56,-44.074 c -0.34,0.278 -0.605,0.645 -0.721,1.107 -0.453,1.811 -0.719,4.045 -0.519,6.14 -0.73,2.03 -2.013,3.888 -3.415,5.587 -1.084,1.315 -2.298,2.337 -3.746,3.243 -0.948,0.171 -1.896,0.341 -2.844,0.512 -1.379,-0.189 -1.932,-0.802 -1.681,-1.83 0.802,-0.52 1.477,-1.285 1.879,-2.282 0.706,-1.752 -1.333,-3.348 -2.925,-2.925 -0.429,0.114 -0.819,0.261 -1.174,0.434 1.299,-3.285 2.846,-6.861 6.949,-7.079 2.219,-0.118 4.583,0.063 6.332,-1.629 1.658,-1.604 2.484,-3.54 3.313,-5.658 1.168,-2.986 2.238,-2.15 3.494,-0.868 -1.962,1.348 -3.653,3.08 -4.942,5.248 z m 14.434,7.036 c 0.049,-0.102 0.093,-0.205 0.14,-0.308 0.051,0.084 0.099,0.172 0.151,0.255 -0.097,0.017 -0.194,0.036 -0.291,0.053 z m 9.606,-8.189 c -0.089,0.471 -0.143,0.947 -0.176,1.423 -0.056,0.486 -0.111,0.971 -0.167,1.457 -0.108,2.39 -1.779,3.238 -5.013,2.543 -1.001,-1.813 -1.877,-3.709 -2.812,-5.557 -1.101,-2.176 -4.358,-1.049 -4.401,1.192 -0.057,3.024 -1.051,5.421 -3.11,7.619 -1.63,2.049 -3.285,2.067 -4.966,0.063 0.574,-2.289 0.752,-4.544 0.451,-6.479 -0.073,-0.469 -0.276,-0.833 -0.556,-1.104 7.259,-3.667 14.595,-4.171 22.241,-2.751 -0.722,0.206 -1.326,0.719 -1.491,1.594 z m 8.272,3.322 c 0.029,0.217 0.081,0.422 0.122,0.633 -0.012,0.003 -0.024,0.007 -0.036,0.01 -0.982,0.399 -1.964,0.799 -2.947,1.198 -0.623,-0.816 -0.933,-1.697 -0.944,-2.639 0.097,-0.643 0.174,-1.277 0.235,-1.887 0.072,-0.722 -0.205,-1.287 -0.649,-1.685 1.847,0.438 3.712,0.967 5.601,1.591 0.427,0.141 0.851,0.292 1.276,0.442 -1.378,-0.11 -2.872,0.736 -2.658,2.337 z m 8.685,10.155 c -2.235,-1.504 -4.583,-2.718 -7.016,-3.642 0.397,-0.239 0.768,-0.518 1.102,-0.84 1.58,1.586 3.669,2.563 5.922,2.707 -0.061,0.591 -0.056,1.185 -0.008,1.775 z m 5.876,-3.727 c 1.54,-2.116 -1.351,-4.373 -3.334,-3.334 -3.027,1.585 -6.054,-0.637 -6.477,-3.737 -0.112,-0.526 -0.387,-0.92 -0.746,-1.199 6.148,2.328 11.949,5.605 16.896,9.9 -3.781,-0.909 -5.191,1.558 -5.233,4.68 -3.314,-0.796 -2.375,-4.565 -1.106,-6.31 z m 1.727,11.416 c 0.017,0 0.032,0.005 0.05,0.005 0.086,0.002 0.175,-0.006 0.262,-0.006 0.568,1.543 1.349,2.877 2.209,3.641 0.2,0.178 0.403,0.342 0.607,0.499 -0.188,0.607 -0.357,1.208 -0.507,1.788 -0.542,-2.076 -1.447,-4.075 -2.621,-5.927 z m -11.727,54.813 c 2.921,-2.026 6.858,-1.36 9.17,-4.439 1.609,-2.142 2.067,-4.619 2.173,-7.19 2.158,-0.823 3.969,-1.965 5.267,-4.11 0.058,-0.097 0.1,-0.196 0.15,-0.294 0.214,1.028 0.541,2.014 0.954,2.966 -0.717,0.36 -1.393,0.825 -1.987,1.405 -1.581,1.544 -2.713,4.342 -3.088,7.266 -4.127,1.189 -5.704,4.666 -5.835,8.496 -2.747,-1.857 -5.801,-3.05 -8.885,-2.576 0.692,-0.524 1.384,-1.041 2.081,-1.524 z m 0.098,6.765 c 2.354,-0.005 4.454,1.618 6.238,3.404 0.143,3.629 -0.271,7.071 -1.331,10.627 -1.264,4.24 -4.43,-0.656 -6.365,-4.422 0.041,-2.24 -1.324,-4.976 -3.187,-6.927 0.911,-2.015 2.395,-2.677 4.645,-2.682 z m -8.871,-0.772 c -0.168,0.261 -0.328,0.532 -0.481,0.81 -0.41,-0.08 -0.82,-0.135 -1.227,-0.166 0.578,-0.169 1.147,-0.386 1.708,-0.644 z m -2.281,6.203 c -0.05,0.393 -0.083,0.777 -0.09,1.144 -0.004,0.233 0.006,0.475 0.022,0.721 -1.015,0.645 -2.044,1.269 -3.089,1.871 -0.055,-0.845 -0.153,-1.701 -0.299,-2.55 0.629,-0.866 2.018,-1.3 3.456,-1.186 z m -3.999,-5.388 c 0.354,0.08 0.703,0.136 1.048,0.171 -0.483,0.133 -0.949,0.301 -1.397,0.501 0.117,-0.224 0.233,-0.448 0.349,-0.672 z m -5.376,4.097 c 0.252,0.403 0.432,0.849 0.568,1.318 -0.091,0.292 -0.165,0.592 -0.217,0.9 -0.679,-1.28 -1.357,-2.559 -2.036,-3.839 0.729,0.008 1.295,0.535 1.685,1.621 z m -4.455,5.474 c 1.585,3.449 3.802,7.314 6.737,7.024 3.23,-0.32 6.431,-2.088 9.367,-4.067 0.751,0.629 1.692,1.003 2.832,0.961 1.002,1.987 2.245,3.887 3.776,5.32 -1.15,-0.214 -2.505,0.348 -2.767,1.608 -0.011,0.061 -0.026,0.12 -0.037,0.18 -2.389,0.632 -4.857,1.029 -7.34,1.2 -0.762,-0.464 -1.751,-0.417 -2.463,0.092 -2.296,0.011 -4.586,-0.175 -6.819,-0.589 -0.629,-0.711 -1.697,-0.95 -2.527,-0.579 -1.844,-0.492 -3.639,-1.132 -5.344,-1.948 -0.219,-0.105 -0.426,-0.217 -0.634,-0.33 -0.092,-0.203 -0.15,-0.34 -0.161,-0.376 -0.306,-1.018 -1.405,-1.557 -2.352,-1.37 -0.506,-0.442 -0.972,-0.913 -1.412,-1.407 2.122,0.326 4.267,0.122 6.048,-1.291 1.522,-1.21 2.312,-2.813 3.096,-4.428 z m -4.863,-14.263 c 0.203,0.087 0.398,0.19 0.597,0.284 -0.741,-0.242 -1.508,-0.404 -2.289,-0.457 -0.21,-0.014 -0.418,-0.016 -0.625,-0.011 -0.188,-0.277 -0.406,-0.537 -0.644,-0.785 0.993,0.238 1.98,0.548 2.961,0.969 z m -8.04,2.897 c -1.264,1.92 -1.334,4.431 0.822,6.614 1.008,1.021 2.747,1.029 3.754,0 1.061,-1.085 1.786,-2.533 2.105,-4.059 0.386,0.05 0.754,0.171 1.107,0.35 -0.34,1.722 0.043,3.628 1.088,5.123 -1.294,2.406 -2.843,4.529 -5.453,3.363 -2.324,-1.038 -3.985,-4.279 -4.882,-6.478 -0.618,-1.411 -0.597,-2.821 0.064,-4.233 0.265,-0.546 0.831,-0.74 1.395,-0.68 z m -19.427,-11.356 c -1.276,-1.648 -3.113,-2.735 -5.109,-3.249 3.27,-3.076 6.733,-5.889 10.831,-7.952 3.84,-1.933 8.317,-1.807 10.739,2.101 2.113,3.409 1.247,8.129 -1.361,10.917 -0.026,0.028 -0.057,0.052 -0.084,0.08 -0.332,0.179 -0.609,0.444 -0.823,0.755 -1.74,1.431 -3.987,2.377 -5.941,3.359 -4.379,2.199 -6.139,-3.283 -8.252,-6.011 z m 1.101,16.465 c 2.529,0.7 4.913,1.876 7.058,3.463 -0.823,-0.336 -1.87,-0.118 -2.499,0.787 -0.681,0.979 -1.165,2.039 -1.437,3.108 -0.996,0.956 -2.216,0.368 -3.662,-1.773 -0.286,-1.293 -0.084,-2.489 0.607,-3.589 0.387,-0.739 0.285,-1.448 -0.067,-1.996 z m -2.967,-0.583 c -0.16,0.147 -0.309,0.323 -0.43,0.554 -1.3,2.479 -1.652,6.039 -0.305,8.605 -0.765,-0.659 -1.515,-1.34 -2.248,-2.048 -2.022,-1.955 -3.892,-4.131 -5.616,-6.437 2.892,-0.832 5.799,-1.028 8.599,-0.674 z M 537.254,96.032 c 0.468,0.252 0.828,0.379 1.1,0.406 -0.053,0.42 -0.092,0.837 -0.117,1.249 -0.261,0.16 -0.519,0.329 -0.775,0.505 -0.078,-0.59 -0.182,-1.173 -0.333,-1.737 -0.038,-0.141 -0.085,-0.27 -0.139,-0.393 0.088,-0.012 0.177,-0.017 0.264,-0.03 z m -3.977,25.205 c 0.134,-0.082 0.257,-0.177 0.363,-0.287 1.88,-1.964 2.677,-4.256 2.621,-6.324 0.272,-0.115 0.528,-0.255 0.757,-0.426 0.356,-0.265 0.754,-0.582 1.16,-0.939 0.108,0.716 0.616,1.093 1.193,1.16 -0.557,1.093 -0.889,2.297 -0.902,3.653 -0.005,0.47 0.196,0.858 0.489,1.149 -0.139,0.353 -0.292,0.704 -0.454,1.054 -0.1,0.03 -0.198,0.067 -0.294,0.118 -0.766,-0.151 -1.566,-0.081 -2.346,0.358 -0.896,0.504 -1.792,1.094 -2.278,2.055 -0.539,1.066 -2.689,4.244 -3.122,5.156 -0.005,-0.12 0.003,-0.235 -0.005,-0.356 -0.006,-0.101 -0.026,-0.191 -0.042,-0.284 1.188,-1.189 2.096,-2.664 2.527,-4.205 0.188,-0.67 0.291,-1.293 0.333,-1.882 z m -3.656,-27.278 c 0.637,0.912 1.523,1.621 2.715,1.868 0.17,0.035 0.329,0.054 0.494,0.083 -0.111,0.166 -0.211,0.344 -0.283,0.544 -0.135,0.372 -0.254,0.755 -0.363,1.141 -1.075,-1.895 -2.867,-2.744 -4.575,-2.542 0.658,-0.531 1.337,-0.956 2.012,-1.094 z m -0.333,20.36 c -0.013,0.189 -0.031,0.377 -0.037,0.566 -0.005,-0.195 -0.024,-0.393 -0.039,-0.59 0.025,0.008 0.051,0.016 0.076,0.024 z m -1.109,-13.332 c 0.273,-1.254 0.594,-2.153 0,0 z m 0.327,18.257 c 1.394,1.251 0.116,3.553 -1.31,4.686 -0.236,-0.502 -0.523,-0.948 -0.849,-1.345 0.928,-0.938 1.663,-2.071 2.159,-3.341 z m 12.571,57.688 c -0.651,-0.801 -1.302,-1.603 -1.953,-2.404 0.233,-1.578 -1.115,-2.927 -2.427,-2.93 -0.114,-0.305 -0.245,-0.601 -0.344,-0.912 -0.332,-0.9 -1.107,-1.698 -2.152,-1.638 -0.655,-0.582 -1.122,-1.187 -1.415,-1.811 0.093,-0.214 0.169,-0.435 0.231,-0.663 1.716,1.593 3.431,3.172 4.998,4.828 1.538,1.625 2.757,3.351 3.742,5.154 -0.243,0.085 -0.473,0.213 -0.68,0.376 z m 1.915,7.335 c 0.406,-0.175 0.761,-0.513 0.948,-1.072 0.082,-0.244 0.134,-0.483 0.194,-0.723 0.444,1.578 0.779,3.196 1.034,4.847 -0.708,-1.034 -1.436,-2.049 -2.176,-3.052 z m 159.06,29.568 c -5.646,0.467 -11.262,0.786 -16.924,0.461 -11.008,-0.631 -21.931,-4.948 -32.404,-8.1 -20.959,-6.309 -41.874,-12.762 -62.385,-20.425 -9.955,-3.719 -19.615,-8.087 -29.464,-12.056 -4.743,-1.911 -11.162,-0.784 -13.727,3.147 -0.043,-0.095 -0.082,-0.192 -0.127,-0.287 -2.69,-5.683 -7.061,-9.971 -11.569,-14.244 -2.543,-2.41 -5.013,-4.87 -7.064,-7.722 -3.153,-4.385 -2.07,-7.993 0.314,-12.309 3.416,-6.186 7.373,-12.06 11.648,-17.681 0.016,-0.011 0.03,-0.026 0.046,-0.037 2.51,7.888 6.48,14.771 12.096,20.993 6.974,7.726 16.289,12.74 25.369,17.54 19.813,10.474 40.636,18.882 62.052,25.456 10.308,3.164 20.772,5.803 31.318,8.043 9.672,2.054 19.626,4.008 29.539,2.807 8.13,-0.985 17.803,-5.215 20.554,-13.684 1.585,-4.88 -0.286,-10.054 -4.264,-11.831 2.252,-0.57 4.817,-0.059 6.989,1.013 4.68,2.311 5.497,8.308 5.43,12.95 -0.13,9.042 -4.597,19.924 -13.355,23.578 -4.393,1.829 -9.397,2.001 -14.072,2.388 z"
   id="path108" />&#10;	</g><path
       style="font-size:3.175px;font-family:'Liberation Mono';-inkscape-font-specification:'Liberation Mono';fill:#000000;fill-opacity:1;stroke-width:1.62"
       d="m 3.4576163,97.659995 h 1.275891 v 0.241845 h -0.489893 v 1.607654 h 0.489893 v 0.241846 h -1.275891 v -0.241846 h 0.489892 V 97.90184 h -0.489892 z m 2.888195,2.091345 -0.806152,-1.751831 q 0.02481,0.26665 0.02481,0.393774 v 1.358057 h -0.26355 v -2.091345 h 0.344165 l 0.818555,1.764233 q -0.02791,-0.223242 -0.02791,-0.42478 v -1.339453 h 0.26665 v 2.091345 z"
       id="text3"
       aria-label="IN" /><path
       style="font-size:3.175px;font-family:'Liberation Mono';-inkscape-font-specification:'Liberation Mono';fill:#000000;fill-opacity:1;stroke-width:1.62"
       d="m 14.108283,98.728145 q 0,0.522449 -0.206189,0.804602 -0.204638,0.282153 -0.589111,0.282153 -0.386023,0 -0.589111,-0.277502 -0.203089,-0.277503 -0.203089,-0.809253 0,-0.522449 0.201539,-0.7953 0.201538,-0.272852 0.593762,-0.272852 0.382922,0 0.587561,0.269751 0.204638,0.268201 0.204638,0.798401 z m -0.311608,0 q 0,-0.826306 -0.480591,-0.826306 -0.483692,0 -0.483692,0.826306 0,0.418579 0.122473,0.632519 0.122474,0.213941 0.359668,0.213941 0.252698,0 0.36742,-0.217041 0.114722,-0.217041 0.114722,-0.629419 z m 2.153356,0.296106 q 0,0.413928 -0.176733,0.603064 -0.176733,0.187585 -0.567407,0.187585 -0.378272,0 -0.548804,-0.181384 -0.168982,-0.182935 -0.168982,-0.58136 v -1.359607 h 0.296106 v 1.3193 q 0,0.316259 0.08992,0.440283 0.09147,0.122473 0.330213,0.122473 0.249597,0 0.350366,-0.127124 0.100769,-0.127124 0.100769,-0.455786 v -1.299146 h 0.294555 z m 1.3224,-1.089856 v 1.849499 h -0.294555 v -1.849499 h -0.68678 v -0.241846 h 1.668115 v 0.241846 z"
       id="text4"
       aria-label="OUT" /><path
       style="font-size:3.175px;font-family:'Liberation Mono';-inkscape-font-specification:'Liberation Mono';fill:#000000;fill-opacity:1;stroke-width:1.62"
       d="m 9.028285,77.090695 q 0,0.522449 -0.206188,0.804602 -0.204639,0.282153 -0.589112,0.282153 -0.386023,0 -0.589111,-0.277502 -0.203088,-0.277503 -0.203088,-0.809253 0,-0.522449 0.201538,-0.7953 0.201538,-0.272852 0.593762,-0.272852 0.382922,0 0.587561,0.269751 0.204638,0.268201 0.204638,0.798401 z m -0.311608,0 q 0,-0.826306 -0.480591,-0.826306 -0.483692,0 -0.483692,0.826306 0,0.418579 0.122474,0.632519 0.122473,0.213941 0.359668,0.213941 0.252697,0 0.367419,-0.217041 0.114722,-0.217041 0.114722,-0.629419 z m 0.958081,0 q 0,0.42323 0.131775,0.63562 0.133325,0.21084 0.406175,0.21084 0.15658,0 0.283704,-0.10542 0.127124,-0.10697 0.215491,-0.331763 l 0.246496,0.100769 q -0.230993,0.576709 -0.748791,0.576709 -0.407726,0 -0.627868,-0.280603 -0.218591,-0.280603 -0.218591,-0.806152 0,-1.068152 0.830956,-1.068152 0.525549,0 0.722436,0.519348 l -0.260449,0.100769 q -0.05736,-0.175183 -0.179834,-0.275952 -0.120923,-0.102319 -0.280603,-0.102319 -0.265099,0 -0.393773,0.199988 -0.127124,0.199987 -0.127124,0.626318 z m 2.517674,-0.79375 v 1.849499 h -0.294555 v -1.849499 h -0.68678 v -0.241846 h 1.668115 v 0.241846 z"
       id="text6"
       aria-label="OCT" /><path
       style="font-size:3.175px;font-family:'Liberation Mono';-inkscape-font-specification:'Liberation Mono';fill:#000000;fill-opacity:1;stroke-width:1.62"
       d="m 7.7671237,56.083022 -0.567407,-0.891419 h -0.36897 v 0.891419 h -0.296106 v -2.091345 h 0.747241 q 0.361218,0 0.550354,0.150378 0.189136,0.148828 0.189136,0.427881 0,0.230993 -0.145728,0.389123 -0.144177,0.15813 -0.387573,0.198438 l 0.620117,0.925525 z m -0.04341,-1.508435 q 0,-0.345716 -0.471289,-0.345716 h -0.42168 v 0.728638 h 0.434082 q 0.221692,0 0.339514,-0.09922 0.119373,-0.09922 0.119373,-0.283703 z m 2.210718,0.452685 q 0,0.522449 -0.206189,0.804602 -0.204639,0.282154 -0.589112,0.282154 -0.386023,0 -0.589111,-0.277503 -0.203088,-0.277502 -0.203088,-0.809253 0,-0.522449 0.201538,-0.7953 0.201538,-0.272852 0.593762,-0.272852 0.382922,0 0.587561,0.269751 0.204639,0.268201 0.204639,0.798401 z m -0.311609,0 q 0,-0.826306 -0.480591,-0.826306 -0.483691,0 -0.483691,0.826306 0,0.418579 0.122473,0.63252 0.122473,0.21394 0.359668,0.21394 0.252697,0 0.367419,-0.217041 0.114722,-0.217041 0.114722,-0.629419 z m 2.2169183,0 q 0,0.522449 -0.206188,0.804602 -0.204639,0.282154 -0.589112,0.282154 -0.386023,0 -0.589111,-0.277503 -0.203088,-0.277502 -0.203088,-0.809253 0,-0.522449 0.201538,-0.7953 0.201538,-0.272852 0.593762,-0.272852 0.382922,0 0.587561,0.269751 0.204638,0.268201 0.204638,0.798401 z m -0.311608,0 q 0,-0.826306 -0.480591,-0.826306 -0.483692,0 -0.483692,0.826306 0,0.418579 0.122474,0.63252 0.122473,0.21394 0.359668,0.21394 0.252697,0 0.367419,-0.217041 0.114722,-0.217041 0.114722,-0.629419 z m 1.570446,-0.79375 v 1.8495 h -0.294555 v -1.8495 h -0.68678 v -0.241845 h 1.668115 v 0.241845 z"
       id="text8"
       aria-label="ROOT" /><rect
       style="fill:#1e1e1e;fill-opacity:1;stroke-width:1.57158"
       id="rect14"
       width="0.49999955"
       height="6.4249959"
       x="9.9099979"
       y="61.664482" /><rect
       style="fill:#1e1e1e;fill-opacity:1;stroke-width:1.57158"
       id="rect15"
       width="0.49999955"
       height="6.4249921"
       x="9.9099989"
       y="83.524994" /><path
       d="m 8.0771778,3.0127866 q 0,0.2852539 -0.2092896,0.4449341 -0.2077392,0.1596802 -0.5937622,0.1596802 -0.7084838,0 -0.8232055,-0.5550049 l 0.2868042,-0.057361 q 0.043408,0.1999878 0.179834,0.291455 0.1364257,0.089917 0.3643188,0.089917 0.2464966,0 0.3736206,-0.096118 0.1286743,-0.096118 0.1286743,-0.2728516 0,-0.1085205 -0.05116,-0.1767334 Q 7.6834034,2.7724912 7.6012379,2.729083 7.5190723,2.6856748 7.4152027,2.6593198 7.3128834,2.6314146 7.2074634,2.6050596 6.9578663,2.5399473 6.8508961,2.4887876 6.7454761,2.437628 6.6819141,2.3725156 6.6183521,2.3058531 6.585796,2.2205869 6.5532398,2.1353208 6.5532398,2.0205992 q 0,-0.2682007 0.1875855,-0.412378 0.1891357,-0.1457275 0.5410522,-0.1457275 0.3286621,0 0.5022949,0.1147217 0.1736328,0.1147216 0.2418457,0.3875732 L 7.734563,2.0159483 Q 7.697356,1.8423155 7.5857349,1.7648008 7.4741138,1.6857359 7.2803272,1.6857359 q -0.4387329,0 -0.4387329,0.3302124 0,0.093018 0.040308,0.1519287 0.041858,0.057361 0.1116211,0.096118 0.071314,0.037207 0.1643311,0.062012 0.094568,0.024805 0.2015381,0.05271 0.2154907,0.05426 0.3100585,0.091467 0.094568,0.035657 0.1674317,0.082165 0.074414,0.046509 0.127124,0.1100708 0.05271,0.063562 0.082165,0.1488282 0.031006,0.085266 0.031006,0.201538 z M 8.6011768,3.586395 V 1.4950498 h 0.296106 V 3.3445493 H 9.9390796 V 3.586395 Z M 11.883147,2.5197935 q 0,0.5131469 -0.238745,0.7906494 Q 11.407207,3.586395 10.963823,3.586395 H 10.390215 V 1.4950498 h 0.482141 q 0.510046,0 0.759644,0.2557984 0.251147,0.254248 0.251147,0.7689453 z m -0.297656,0 q 0,-0.4092774 -0.170532,-0.5953125 -0.170533,-0.1875855 -0.541053,-0.1875855 h -0.187585 v 1.6076538 h 0.251147 q 0.328662,0 0.488343,-0.2061889 0.15968,-0.206189 0.15968,-0.6185669 z M 13.528008,3.586395 12.9606,2.6949766 H 12.591631 V 3.586395 H 12.295525 V 1.4950498 h 0.747241 q 0.361218,0 0.550354,0.1503785 0.189136,0.1488281 0.189136,0.4278808 0,0.2309937 -0.145728,0.3891235 -0.144177,0.1581299 -0.387573,0.1984375 L 13.869072,3.586395 Z M 13.484599,2.07796 q 0,-0.3457153 -0.471289,-0.3457153 h -0.421679 v 0.7286376 h 0.434082 q 0.221692,0 0.339514,-0.099219 0.119372,-0.099219 0.119372,-0.2837036 z"
       id="text5"
       style="font-size:3.175px;font-family:'Liberation Mono';-inkscape-font-specification:'Liberation Mono';fill:#ffffff;stroke-width:1.62"
       aria-label="SLDR" /></g><g
     inkscape:label="components"
     inkscape:groupmode="layer"
     id="layer1"
     style="display:inline;fill:#5a391b;fill-opacity:1"><rect
       style="display:none;fill:#00ff00;fill-opacity:1;stroke-width:1.62"
       id="rect4"
       width="0.99999994"
       height="0.99999994"
       x="2.54"
       y="102.8"
       inkscape:label="voltage" /><rect
       style="display:none;fill:#0000ff;fill-opacity:1;stroke-width:1.62"
       id="rect6"
       width="0.99999994"
       height="0.99999994"
       x="12.605984"
       y="102.8"
       inkscape:label="voltage" /><circle
       style="fill:#00ff00;fill-opacity:1;stroke-width:1.62"
       id="path6"
       cx="10.16"
       cy="89.949997"
       r="0.49999997"
       inkscape:label="octave" /><circle
       style="fill:#ff0000;fill-opacity:1;stroke-width:1.62"
       id="circle6"
       cx="10.159999"
       cy="83.524994"
       r="0.49999997"
       inkscape:label="octave" /><circle
       style="fill:#00ff00;fill-opacity:1;stroke-width:1.62"
       id="circle7"
       cx="10.160001"
       cy="68.089485"
       r="0.49999997"
       inkscape:label="root" /><circle
       style="fill:#ff0000;fill-opacity:1;stroke-width:1.62"
       id="circle8"
       cx="10.16"
       cy="61.664482"
       r="0.49999997"
       inkscape:label="root" /><circle
       style="fill:#ff0000;fill-opacity:1;stroke-width:1.62"
       id="circle9"
       cx="10.159999"
       cy="19.275"
       r="0.49999997"
       inkscape:label="notes5" /><circle
       style="fill:#ff0000;fill-opacity:1;stroke-width:1.62"
       id="circle10"
       cx="10.159999"
       cy="24.414999"
       r="0.49999997"
       inkscape:label="notes4" /><circle
       style="fill:#ff0000;fill-opacity:1;stroke-width:1.62"
       id="circle11"
       cx="10.159999"
       cy="29.555"
       r="0.49999997"
       inkscape:label="notes3" /><circle
       style="fill:#ff0000;fill-opacity:1;stroke-width:1.62"
       id="circle12"
       cx="10.159999"
       cy="34.695"
       r="0.49999997"
       inkscape:label="notes2" /><circle
       style="fill:#ff0000;fill-opacity:1;stroke-width:1.62"
       id="circle13"
       cx="10.159999"
       cy="39.834995"
       r="0.49999997"
       inkscape:label="notes1" /></g></svg>
